<svg xmlns="http://www.w3.org/2000/svg" xmlns:xlink="http://www.w3.org/1999/xlink" width="72" height="72" viewBox="0 0 72 72">
  <defs>
    <linearGradient id="linear-gradient" x1="0.57" y1="0.613" x2="1" y2="-0.329" gradientUnits="objectBoundingBox">
      <stop offset="0" stop-color="#4175c7"/>
      <stop offset="1" stop-color="#213b64"/>
    </linearGradient>
    <clipPath id="clip-Artboard_20">
      <rect width="72" height="72"/>
    </clipPath>
  </defs>
  <g id="Artboard_20" data-name="Artboard – 20" clip-path="url(#clip-Artboard_20)">
    <rect width="72" height="72" fill="rgba(255,255,255,0)"/>
    <g id="Group_529" data-name="Group 529">
      <path id="Path_636" data-name="Path 636" d="M7.2,0H40.425L55.2,15.623V64.918A7.142,7.142,0,0,1,48,72H7.2A7.142,7.142,0,0,1,0,64.918V7.082A7.142,7.142,0,0,1,7.2,0Z" transform="translate(8.399 0)" fill="url(#linear-gradient)"/>
      <path id="Path_638" data-name="Path 638" d="M48.463,15.635H40.887a7.142,7.142,0,0,1-7.2-7.082l0-8.539Z" transform="translate(15.137 -0.012)" fill="#7ca2dd"/>
      <path id="Path_746" data-name="Path 746" d="M1.479,15V5.047H4.542a4.651,4.651,0,0,1,2.348.591A4.123,4.123,0,0,1,8.507,7.32,5.187,5.187,0,0,1,9.088,9.8v.458a5.2,5.2,0,0,1-.571,2.468A4.088,4.088,0,0,1,6.907,14.4a4.686,4.686,0,0,1-2.345.6ZM3.53,6.708v6.645h.991a2.227,2.227,0,0,0,1.839-.786,3.552,3.552,0,0,0,.649-2.249V9.791a3.609,3.609,0,0,0-.629-2.3,2.219,2.219,0,0,0-1.839-.783Zm15.224,3.541a6.008,6.008,0,0,1-.52,2.577,3.913,3.913,0,0,1-1.487,1.709,4.393,4.393,0,0,1-4.426.007,3.951,3.951,0,0,1-1.5-1.7,5.837,5.837,0,0,1-.54-2.54V9.812a5.977,5.977,0,0,1,.53-2.587,3.945,3.945,0,0,1,1.5-1.716,4.118,4.118,0,0,1,2.211-.6,4.118,4.118,0,0,1,2.211.6,3.945,3.945,0,0,1,1.5,1.716,5.96,5.96,0,0,1,.53,2.581ZM16.676,9.8a4.188,4.188,0,0,0-.561-2.379,1.827,1.827,0,0,0-1.6-.813,1.827,1.827,0,0,0-1.593.8,4.141,4.141,0,0,0-.567,2.355v.485a4.241,4.241,0,0,0,.561,2.365,1.822,1.822,0,0,0,1.613.841,1.806,1.806,0,0,0,1.586-.81,4.216,4.216,0,0,0,.561-2.362Zm11.382,1.887a3.522,3.522,0,0,1-1.186,2.529,4.165,4.165,0,0,1-2.82.923,3.745,3.745,0,0,1-3.011-1.289,5.284,5.284,0,0,1-1.1-3.538V9.7a5.966,5.966,0,0,1,.506-2.529A3.791,3.791,0,0,1,21.9,5.495a4.05,4.05,0,0,1,2.184-.584,4.058,4.058,0,0,1,2.775.923,3.785,3.785,0,0,1,1.217,2.591H26.021a2.079,2.079,0,0,0-.537-1.4,1.987,1.987,0,0,0-1.4-.434,1.742,1.742,0,0,0-1.535.735,4.118,4.118,0,0,0-.523,2.28v.752a4.408,4.408,0,0,0,.489,2.358,1.71,1.71,0,0,0,1.542.745,2.025,2.025,0,0,0,1.418-.434,1.961,1.961,0,0,0,.537-1.343Zm4.908-3.206,1.866-3.432H37.19l-2.9,4.936L37.266,15H34.88l-1.914-3.486L31.052,15H28.666L31.64,9.982l-2.9-4.936H31.1Z" transform="translate(17 36)" fill="#fff"/>
    </g>
  </g>
</svg>
