<svg xmlns="http://www.w3.org/2000/svg" xmlns:xlink="http://www.w3.org/1999/xlink" width="72" height="72" viewBox="0 0 72 72">
  <defs>
    <linearGradient id="linear-gradient" x1="0.592" y1="0.635" x2="1" y2="-0.703" gradientUnits="objectBoundingBox">
      <stop offset="0" stop-color="#26a52d"/>
      <stop offset="1" stop-color="#135317"/>
    </linearGradient>
    <clipPath id="clip-Artboard_194">
      <rect width="72" height="72"/>
    </clipPath>
  </defs>
  <g id="Artboard_194" data-name="Artboard – 194" clip-path="url(#clip-Artboard_194)">
    <rect width="72" height="72" fill="rgba(255,255,255,0)"/>
    <g id="Group_648" data-name="Group 648">
      <path id="Path_636" data-name="Path 636" d="M7.2,0H40.425L55.2,15.623V64.918A7.142,7.142,0,0,1,48,72H7.2A7.142,7.142,0,0,1,0,64.918V7.082A7.142,7.142,0,0,1,7.2,0Z" transform="translate(8 0)" fill="url(#linear-gradient)"/>
      <path id="Path_638" data-name="Path 638" d="M48.463,15.635H40.887a7.142,7.142,0,0,1-7.2-7.082l0-8.539Z" transform="translate(14.737 -0.012)" fill="#5cbe62"/>
      <g id="Group_478" data-name="Group 478" transform="translate(16.419 7.234)">
        <path id="Path_544" data-name="Path 544" d="M815.2,3113.3l6.28-9.327,5.5,5.793,6.74-12.291,8.135,15.825Z" transform="translate(-808.948 -3076.211)" fill="#fff"/>
        <path id="Path_545" data-name="Path 545" d="M819.263,3098.674a2.082,2.082,0,1,0-2.083-2.082A2.083,2.083,0,0,0,819.263,3098.674Z" transform="translate(-809.26 -3075.743)" fill="#fff"/>
      </g>
      <path id="Path_898" data-name="Path 898" d="M8.708,5.047h2.051v6.891a3.3,3.3,0,0,1-.42,1.678A2.853,2.853,0,0,1,9.152,14.74a3.705,3.705,0,0,1-1.729.4,3.522,3.522,0,0,1-2.461-.8,2.918,2.918,0,0,1-.882-2.273H6.145a1.6,1.6,0,0,0,.308,1.08,1.231,1.231,0,0,0,.971.349,1.175,1.175,0,0,0,.937-.4,1.7,1.7,0,0,0,.349-1.148Zm5.858,6.446V15H12.516V5.047H16.4a4.492,4.492,0,0,1,1.972.41A3.022,3.022,0,0,1,19.68,6.623a3.25,3.25,0,0,1,.458,1.719,2.858,2.858,0,0,1-1,2.307,4.171,4.171,0,0,1-2.772.844Zm0-1.661H16.4a1.8,1.8,0,0,0,1.241-.383,1.392,1.392,0,0,0,.427-1.094,1.642,1.642,0,0,0-.431-1.183,1.609,1.609,0,0,0-1.189-.465h-1.88Zm14.854,3.91a3.56,3.56,0,0,1-1.565,1.029,6.556,6.556,0,0,1-2.242.366,4.442,4.442,0,0,1-2.266-.564,3.762,3.762,0,0,1-1.5-1.637,5.762,5.762,0,0,1-.543-2.522V9.736a6.119,6.119,0,0,1,.5-2.581,3.717,3.717,0,0,1,1.449-1.668A4.174,4.174,0,0,1,25.47,4.91a4.157,4.157,0,0,1,2.769.844,3.608,3.608,0,0,1,1.183,2.458h-2a1.985,1.985,0,0,0-.6-1.251,1.932,1.932,0,0,0-1.289-.4,1.818,1.818,0,0,0-1.593.786,4.134,4.134,0,0,0-.554,2.338v.636a3.935,3.935,0,0,0,.595,2.365,2.037,2.037,0,0,0,1.743.8A2.275,2.275,0,0,0,27.37,13V11.281H25.5V9.771h3.917Z" transform="translate(19.25 47.25)" fill="#fff"/>
    </g>
  </g>
</svg>
