<svg xmlns="http://www.w3.org/2000/svg" xmlns:xlink="http://www.w3.org/1999/xlink" width="72" height="72" viewBox="0 0 72 72">
  <defs>
    <linearGradient id="linear-gradient" x1="1.073" y1="-0.46" x2="0.625" y2="0.911" gradientUnits="objectBoundingBox">
      <stop offset="0" stop-color="#9f9d9d"/>
      <stop offset="1" stop-color="#d8d8d8"/>
    </linearGradient>
    <clipPath id="clip-Artboard_178">
      <rect width="72" height="72"/>
    </clipPath>
  </defs>
  <g id="Artboard_178" data-name="Artboard – 178" clip-path="url(#clip-Artboard_178)">
    <rect width="72" height="72" fill="rgba(255,255,255,0)"/>
    <g id="Group_484" data-name="Group 484">
      <path id="Path_636" data-name="Path 636" d="M7.2,0H40.425L55.2,15.623V64.918A7.142,7.142,0,0,1,48,72H7.2A7.142,7.142,0,0,1,0,64.918V7.082A7.142,7.142,0,0,1,7.2,0Z" transform="translate(8 0)" fill="url(#linear-gradient)"/>
      <path id="Path_638" data-name="Path 638" d="M48.463,15.635H40.887a7.142,7.142,0,0,1-7.2-7.082l0-8.539Z" transform="translate(14.737 -0.012)" fill="#e6e6e6"/>
    </g>
    <path id="Path_862" data-name="Path 862" d="M17.773,6.708H14.724V15H12.673V6.708H9.666V5.047h8.107ZM22.5,8.479,24.37,5.047h2.358l-2.9,4.936L26.8,15H24.417L22.5,11.514,20.589,15H18.2l2.974-5.018-2.9-4.936h2.358ZM35.328,6.708H32.279V15H30.228V6.708H27.22V5.047h8.107Z" transform="translate(14 36)" fill="#1a2533"/>
  </g>
</svg>
