<svg xmlns="http://www.w3.org/2000/svg" xmlns:xlink="http://www.w3.org/1999/xlink" width="72" height="72" viewBox="0 0 72 72">
  <defs>
    <linearGradient id="linear-gradient" x1="0.538" y1="0.596" x2="1" y2="-0.365" gradientUnits="objectBoundingBox">
      <stop offset="0" stop-color="#21902a"/>
      <stop offset="1" stop-color="#114815"/>
    </linearGradient>
    <clipPath id="clip-Artboard_51">
      <rect width="72" height="72"/>
    </clipPath>
  </defs>
  <g id="Artboard_51" data-name="Artboard – 51" clip-path="url(#clip-Artboard_51)">
    <rect width="72" height="72" fill="rgba(255,255,255,0)"/>
    <path id="Path_636" data-name="Path 636" d="M7.2,0H40.425L55.2,15.623V64.918A7.142,7.142,0,0,1,48,72H7.2A7.142,7.142,0,0,1,0,64.918V7.082A7.142,7.142,0,0,1,7.2,0Z" transform="translate(8 0)" fill="url(#linear-gradient)"/>
    <path id="Path_638" data-name="Path 638" d="M48.463,15.635H40.887a7.142,7.142,0,0,1-7.2-7.082l0-8.539Z" transform="translate(14.737 -0.012)" fill="#71be77"/>
    <path id="Path_741" data-name="Path 741" d="M4.463,8.479,6.329,5.047H8.688l-2.9,4.936L8.763,15H6.377L4.463,11.514,2.549,15H.163L3.137,9.982.238,5.047H2.6Zm7.383,4.874H16.2V15H9.795V5.047h2.051Zm10.691-.964a1.052,1.052,0,0,0-.41-.892,5.38,5.38,0,0,0-1.477-.656,10.467,10.467,0,0,1-1.688-.68,2.759,2.759,0,0,1-1.7-2.468,2.4,2.4,0,0,1,.455-1.439,2.965,2.965,0,0,1,1.306-.988,4.914,4.914,0,0,1,1.911-.355,4.473,4.473,0,0,1,1.9.386,3.026,3.026,0,0,1,1.3,1.09,2.853,2.853,0,0,1,.461,1.6H22.544a1.342,1.342,0,0,0-.431-1.063,1.77,1.77,0,0,0-1.21-.379,1.891,1.891,0,0,0-1.169.318,1,1,0,0,0-.417.837.96.96,0,0,0,.489.813,5.522,5.522,0,0,0,1.439.615,6.217,6.217,0,0,1,2.55,1.306,2.6,2.6,0,0,1,.8,1.941,2.4,2.4,0,0,1-.978,2.027,4.279,4.279,0,0,1-2.632.735,5.082,5.082,0,0,1-2.092-.42,3.31,3.31,0,0,1-1.439-1.152,2.95,2.95,0,0,1-.5-1.7h2.058q0,1.647,1.969,1.647a1.915,1.915,0,0,0,1.142-.3A.967.967,0,0,0,22.537,12.389Zm7.007-3.91L31.41,5.047h2.358l-2.9,4.936L33.844,15H31.458l-1.914-3.486L27.63,15H25.244l2.974-5.018-2.9-4.936h2.358Z" transform="translate(19 36)" fill="#fff"/>
  </g>
</svg>
